<?xml version="1.0" encoding="UTF-8"?>
<svg width="24px" height="24px" viewBox="0 0 24 24" version="1.1" xmlns="http://www.w3.org/2000/svg">
    <title>Newspaper</title>
    <g stroke="none" stroke-width="1" fill="none" fill-rule="evenodd">
        <path d="M22,3 L22,13.5 C22,14.88 20.88,16 19.5,16 L4.5,16 C3.12,16 2,14.88 2,13.5 L2,3 L22,3 Z M19.5,14 C19.78,14 20,13.78 20,13.5 L20,5 L4,5 L4,13.5 C4,13.78 4.22,14 4.5,14 L19.5,14 Z M5,7 L19,7 L19,9 L5,9 L5,7 Z M5,11 L14,11 L14,13 L5,13 L5,11 Z M16,11 L19,11 L19,13 L16,13 L16,11 Z" fill="#fd67a3" fill-rule="nonzero"></path>
    </g>
</svg>
